<mxfile host="app.diagrams.net" modified="2022-03-07T21:23:54.167Z" agent="5.0 (Windows NT 10.0; Win64; x64) AppleWebKit/537.36 (KHTML, like Gecko) Chrome/98.0.4758.102 Safari/537.36" etag="Fq3Cve5ysAE4xiohldyJ" version="16.6.6" type="github">
  <diagram id="o7YHI3V1tdlzSBeo-LJ7" name="Page-1">
    <mxGraphModel dx="734" dy="1048" grid="1" gridSize="10" guides="1" tooltips="1" connect="1" arrows="1" fold="1" page="1" pageScale="1" pageWidth="850" pageHeight="1100" math="0" shadow="0">
      <root>
        <mxCell id="0" />
        <mxCell id="1" parent="0" />
        <mxCell id="sF5O-IKegb4bDndKz5uQ-1" value="" style="shape=cube;whiteSpace=wrap;html=1;boundedLbl=1;backgroundOutline=1;darkOpacity=0.05;darkOpacity2=0.1;align=left;" vertex="1" parent="1">
          <mxGeometry x="250" y="260" width="270" height="140" as="geometry" />
        </mxCell>
        <mxCell id="sF5O-IKegb4bDndKz5uQ-2" value="&amp;lt;&amp;lt;Website&amp;gt;&amp;gt;" style="text;html=1;strokeColor=none;fillColor=none;align=center;verticalAlign=middle;whiteSpace=wrap;rounded=0;" vertex="1" parent="1">
          <mxGeometry x="280" y="280" width="60" height="30" as="geometry" />
        </mxCell>
        <mxCell id="sF5O-IKegb4bDndKz5uQ-3" value="Array Visualizer" style="rounded=1;whiteSpace=wrap;html=1;" vertex="1" parent="1">
          <mxGeometry x="390" y="290" width="120" height="60" as="geometry" />
        </mxCell>
        <mxCell id="sF5O-IKegb4bDndKz5uQ-4" value="" style="shape=cube;whiteSpace=wrap;html=1;boundedLbl=1;backgroundOutline=1;darkOpacity=0.05;darkOpacity2=0.1;" vertex="1" parent="1">
          <mxGeometry x="380" y="520" width="280" height="140" as="geometry" />
        </mxCell>
        <mxCell id="sF5O-IKegb4bDndKz5uQ-5" value="&amp;lt;&amp;lt;User Device&amp;gt;&amp;gt;" style="text;html=1;strokeColor=none;fillColor=none;align=center;verticalAlign=middle;whiteSpace=wrap;rounded=0;" vertex="1" parent="1">
          <mxGeometry x="400" y="540" width="100" height="30" as="geometry" />
        </mxCell>
        <mxCell id="sF5O-IKegb4bDndKz5uQ-7" value="sortVisualizer.js" style="rounded=0;whiteSpace=wrap;html=1;" vertex="1" parent="1">
          <mxGeometry x="280" y="305" width="90" height="30" as="geometry" />
        </mxCell>
        <mxCell id="sF5O-IKegb4bDndKz5uQ-11" value="" style="endArrow=none;dashed=1;html=1;rounded=0;exitX=1;exitY=0.5;exitDx=0;exitDy=0;" edge="1" parent="1" source="sF5O-IKegb4bDndKz5uQ-7" target="sF5O-IKegb4bDndKz5uQ-3">
          <mxGeometry width="50" height="50" relative="1" as="geometry">
            <mxPoint x="350" y="550" as="sourcePoint" />
            <mxPoint x="400" y="500" as="targetPoint" />
          </mxGeometry>
        </mxCell>
        <mxCell id="sF5O-IKegb4bDndKz5uQ-13" value="" style="endArrow=none;dashed=1;html=1;rounded=0;entryX=0.75;entryY=1;entryDx=0;entryDy=0;exitX=0.5;exitY=0;exitDx=0;exitDy=0;" edge="1" parent="1" source="sF5O-IKegb4bDndKz5uQ-6" target="sF5O-IKegb4bDndKz5uQ-3">
          <mxGeometry width="50" height="50" relative="1" as="geometry">
            <mxPoint x="350" y="550" as="sourcePoint" />
            <mxPoint x="400" y="500" as="targetPoint" />
            <Array as="points">
              <mxPoint x="540" y="460" />
              <mxPoint x="480" y="460" />
            </Array>
          </mxGeometry>
        </mxCell>
        <mxCell id="sF5O-IKegb4bDndKz5uQ-14" value="" style="rounded=1;whiteSpace=wrap;html=1;" vertex="1" parent="1">
          <mxGeometry x="520" y="550" width="130" height="70" as="geometry" />
        </mxCell>
        <mxCell id="sF5O-IKegb4bDndKz5uQ-6" value="View Visualization" style="rounded=1;whiteSpace=wrap;html=1;" vertex="1" parent="1">
          <mxGeometry x="540" y="570" width="90" height="30" as="geometry" />
        </mxCell>
        <mxCell id="sF5O-IKegb4bDndKz5uQ-16" value="Web Browser" style="text;html=1;strokeColor=none;fillColor=none;align=center;verticalAlign=middle;whiteSpace=wrap;rounded=0;" vertex="1" parent="1">
          <mxGeometry x="520" y="545" width="80" height="30" as="geometry" />
        </mxCell>
        <mxCell id="sF5O-IKegb4bDndKz5uQ-17" value="index.html" style="rounded=0;whiteSpace=wrap;html=1;" vertex="1" parent="1">
          <mxGeometry x="280" y="350" width="90" height="30" as="geometry" />
        </mxCell>
        <mxCell id="sF5O-IKegb4bDndKz5uQ-18" value="" style="endArrow=none;dashed=1;html=1;rounded=0;exitX=1;exitY=0.5;exitDx=0;exitDy=0;entryX=0.5;entryY=1;entryDx=0;entryDy=0;" edge="1" parent="1" source="sF5O-IKegb4bDndKz5uQ-17" target="sF5O-IKegb4bDndKz5uQ-3">
          <mxGeometry width="50" height="50" relative="1" as="geometry">
            <mxPoint x="350" y="540" as="sourcePoint" />
            <mxPoint x="400" y="490" as="targetPoint" />
            <Array as="points">
              <mxPoint x="420" y="365" />
            </Array>
          </mxGeometry>
        </mxCell>
      </root>
    </mxGraphModel>
  </diagram>
</mxfile>
